<?xml version="1.0" encoding="UTF-8" standalone="no"?>
<!-- Created with Inkscape (http://www.inkscape.org/) -->

<svg
   version="1.1"
   id="svg1"
   width="24"
   height="24"
   viewBox="0 0 24.000001 24"
   sodipodi:docname="light-icon.svg"
   inkscape:version="1.4.3 (0d15f75042, 2025-12-25)"
   xmlns:inkscape="http://www.inkscape.org/namespaces/inkscape"
   xmlns:sodipodi="http://sodipodi.sourceforge.net/DTD/sodipodi-0.dtd"
   xmlns="http://www.w3.org/2000/svg"
   xmlns:svg="http://www.w3.org/2000/svg">
  <defs
     id="defs1" />
  <sodipodi:namedview
     id="namedview1"
     pagecolor="#505050"
     bordercolor="#eeeeee"
     borderopacity="1"
     inkscape:showpageshadow="0"
     inkscape:pageopacity="0"
     inkscape:pagecheckerboard="0"
     inkscape:deskcolor="#505050"
     showgrid="false"
     inkscape:zoom="18.4803"
     inkscape:cx="6.5204569"
     inkscape:cy="13.582031"
     inkscape:window-width="1536"
     inkscape:window-height="827"
     inkscape:window-x="0"
     inkscape:window-y="0"
     inkscape:window-maximized="1"
     inkscape:current-layer="g1" />
  <g
     inkscape:groupmode="layer"
     inkscape:label="Image"
     id="g1"
     transform="translate(-61.282376,-36.007559)">
    <path
       style="fill:#ffffff;stroke-width:1.01614;fill-opacity:1"
       d="m 80.259534,59.391935 c -0.903721,0.05251 -2.16497,-0.271754 -2.800014,-0.562949 -1.195536,-0.602521 -2.229516,-1.62452 -3.387454,-2.195875 -0.966254,-0.621369 -2.020231,-1.056411 -3.085515,-1.484428 -0.895873,-0.300954 -1.696752,-0.516557 -2.611804,-0.723658 -1.868339,-0.446456 -3.969336,-0.381356 -5.559127,-1.599043 -0.526179,-0.311737 -0.957083,-1.160873 -1.280418,-1.65157 -0.262248,-0.915449 -0.378433,-2.03889 -0.06095,-2.901388 0.209248,-0.821299 0.880905,-1.642344 1.303717,-2.208347 0.619697,-0.533115 1.107833,-1.020388 1.763979,-1.443058 1.356745,-1.008382 2.726221,-2.013401 3.938849,-3.210717 0.142394,-0.200194 0.671347,-0.739415 0.966406,-0.985829 0.335038,-0.429889 0.797495,-0.962412 1.196426,-1.437719 0.641439,-0.846298 1.499725,-1.591428 2.255424,-2.254257 0.863818,-0.351868 1.53334,-0.793425 2.457262,-0.716771 0.943808,-0.0329 2.062859,0.459894 2.577674,1.160361 0.583222,0.514547 0.885218,1.485661 1.104033,2.282055 0.199132,0.807946 0.532079,1.749243 0.710269,2.445216 0.367364,1.041116 0.736536,2.106575 1.233244,3.073735 0.503038,1.239992 1.253354,2.516839 2.056315,3.652537 0.90051,1.34764 1.904575,2.746451 2.150764,4.37143 0.194977,0.838536 0.06219,1.867527 -0.18136,2.722405 -0.426564,0.992909 -0.993497,2.012063 -1.913334,2.601043 -0.309566,0.32207 -0.844155,0.521717 -1.357162,0.728888 -0.414075,0.236613 -0.990205,0.246295 -1.477229,0.337939 z m 0.815165,-0.907023 c 2.275862,-0.520611 3.973907,-2.874609 3.549955,-5.205867 -0.417338,-2.50387 -2.396569,-4.307371 -3.485836,-6.509167 -0.938453,-1.742664 -1.6429,-3.622776 -2.201328,-5.504248 0.02144,2.903412 -0.92252,6.069461 -3.423333,7.787264 -1.590528,1.149332 -3.912274,1.505713 -5.565976,0.273017 -0.455817,-0.160864 0.541777,1.041546 0.717339,1.433428 1.686953,2.464963 3.479454,4.96431 5.934501,6.723074 1.305268,0.928475 2.895054,1.314455 4.474678,1.002499 z m -7.03707,-2.765203 c -1.905909,-2.175361 -3.774331,-4.465554 -4.961956,-7.124111 -1.146189,-2.422458 -0.403287,-5.202795 0.688861,-7.496597 -1.686959,1.841743 -3.757181,3.297201 -5.738721,4.813663 -1.383218,1.060232 -2.655626,2.874355 -2.002718,4.682237 0.492824,1.58537 2.133422,2.352896 3.668911,2.552194 2.872237,0.455699 5.791934,1.062026 8.309195,2.591251 l 0.05274,0.01426 z m 3.947579,-10.553558 c 0.710492,-2.088592 0.967626,-4.477887 0.13224,-6.566882 -0.603778,-1.526896 -2.500346,-2.248628 -3.98608,-1.581118 -2.510709,1.036652 -3.925329,3.60652 -4.81087,6.035533 -0.07976,0.450883 -0.632968,1.844666 -0.326578,1.713616 1.490168,-2.062561 4.497953,-3.065176 6.808687,-1.814913 1.017915,0.54215 1.736649,1.528954 2.013241,2.640447 0.06026,-0.140695 0.113807,-0.284162 0.16936,-0.426683 z m -3.864195,-9.067816 c 0.201399,-0.04129 -0.07154,0.08305 0,0 z"
       id="path1" />
  </g>
</svg>
